<mxfile host="app.diagrams.net" modified="2024-01-23T09:31:39.044Z" agent="Mozilla/5.0 (Windows NT 10.0; Win64; x64) AppleWebKit/537.36 (KHTML, like Gecko) Chrome/120.0.0.0 Safari/537.36" etag="AUnAf5BV3sollFD82P0P" version="22.1.21" type="github">
  <diagram name="Page-1" id="MzgacfYq_71MGGJwTiNh">
    <mxGraphModel dx="2129" dy="453" grid="1" gridSize="10" guides="1" tooltips="1" connect="1" arrows="1" fold="1" page="1" pageScale="1" pageWidth="850" pageHeight="1100" math="0" shadow="0">
      <root>
        <mxCell id="0" />
        <mxCell id="1" parent="0" />
        <mxCell id="t1A3uLXFTPM-mlNLIN6W-9" value="" style="shape=cube;whiteSpace=wrap;html=1;boundedLbl=1;backgroundOutline=1;darkOpacity=0.05;darkOpacity2=0.1;size=6;rotation=90;fillColor=#ffe6cc;strokeColor=#d79b00;direction=west;flipV=0;flipH=1;" vertex="1" parent="1">
          <mxGeometry x="-1347.25" y="168.25" width="139" height="97.5" as="geometry" />
        </mxCell>
        <mxCell id="t1A3uLXFTPM-mlNLIN6W-14" style="edgeStyle=orthogonalEdgeStyle;rounded=0;orthogonalLoop=1;jettySize=auto;html=1;" edge="1" parent="1" source="t1A3uLXFTPM-mlNLIN6W-11" target="t1A3uLXFTPM-mlNLIN6W-13">
          <mxGeometry relative="1" as="geometry" />
        </mxCell>
        <mxCell id="t1A3uLXFTPM-mlNLIN6W-11" value="" style="shape=cube;whiteSpace=wrap;html=1;boundedLbl=1;backgroundOutline=1;darkOpacity=0.05;darkOpacity2=0.1;size=8;rotation=90;fillColor=#dae8fc;strokeColor=#6c8ebf;direction=west;flipV=0;flipH=1;" vertex="1" parent="1">
          <mxGeometry x="-1220" y="179.13" width="108.25" height="75.75" as="geometry" />
        </mxCell>
        <mxCell id="t1A3uLXFTPM-mlNLIN6W-12" style="edgeStyle=orthogonalEdgeStyle;rounded=0;orthogonalLoop=1;jettySize=auto;html=1;exitX=0;exitY=0;exitDx=72.5;exitDy=97.5;exitPerimeter=0;entryX=0.525;entryY=0.037;entryDx=0;entryDy=0;entryPerimeter=0;" edge="1" parent="1" source="t1A3uLXFTPM-mlNLIN6W-9" target="t1A3uLXFTPM-mlNLIN6W-11">
          <mxGeometry relative="1" as="geometry" />
        </mxCell>
        <mxCell id="t1A3uLXFTPM-mlNLIN6W-16" style="edgeStyle=orthogonalEdgeStyle;rounded=0;orthogonalLoop=1;jettySize=auto;html=1;" edge="1" parent="1" source="t1A3uLXFTPM-mlNLIN6W-13" target="t1A3uLXFTPM-mlNLIN6W-15">
          <mxGeometry relative="1" as="geometry" />
        </mxCell>
        <mxCell id="t1A3uLXFTPM-mlNLIN6W-13" value="" style="shape=cube;whiteSpace=wrap;html=1;boundedLbl=1;backgroundOutline=1;darkOpacity=0.05;darkOpacity2=0.1;size=8;rotation=90;fillColor=#dae8fc;strokeColor=#6c8ebf;direction=west;flipV=0;flipH=1;" vertex="1" parent="1">
          <mxGeometry x="-1111.75" y="189.56" width="70" height="54.88" as="geometry" />
        </mxCell>
        <mxCell id="t1A3uLXFTPM-mlNLIN6W-15" value="" style="shape=cube;whiteSpace=wrap;html=1;boundedLbl=1;backgroundOutline=1;darkOpacity=0.05;darkOpacity2=0.1;size=8;rotation=90;fillColor=#dae8fc;strokeColor=#6c8ebf;direction=west;flipV=0;flipH=1;" vertex="1" parent="1">
          <mxGeometry x="-1025.22" y="194.78" width="50" height="44.44" as="geometry" />
        </mxCell>
        <mxCell id="t1A3uLXFTPM-mlNLIN6W-17" value="" style="shape=cube;whiteSpace=wrap;html=1;boundedLbl=1;backgroundOutline=1;darkOpacity=0.05;darkOpacity2=0.1;size=8;rotation=90;fillColor=#dae8fc;strokeColor=#6c8ebf;direction=west;flipV=0;flipH=1;" vertex="1" parent="1">
          <mxGeometry x="-950" y="204.78" width="30" height="34.44" as="geometry" />
        </mxCell>
        <mxCell id="t1A3uLXFTPM-mlNLIN6W-19" style="edgeStyle=orthogonalEdgeStyle;rounded=0;orthogonalLoop=1;jettySize=auto;html=1;entryX=0;entryY=0;entryDx=10.999999999999998;entryDy=0;entryPerimeter=0;" edge="1" parent="1" source="t1A3uLXFTPM-mlNLIN6W-15" target="t1A3uLXFTPM-mlNLIN6W-17">
          <mxGeometry relative="1" as="geometry" />
        </mxCell>
        <mxCell id="t1A3uLXFTPM-mlNLIN6W-20" value="" style="shape=cube;whiteSpace=wrap;html=1;boundedLbl=1;backgroundOutline=1;darkOpacity=0.05;darkOpacity2=0.1;size=6;rotation=90;fillColor=#ffe6cc;strokeColor=#d79b00;direction=west;flipV=0;flipH=1;" vertex="1" parent="1">
          <mxGeometry x="-1347.25" y="370" width="139" height="97.5" as="geometry" />
        </mxCell>
        <mxCell id="t1A3uLXFTPM-mlNLIN6W-36" style="edgeStyle=orthogonalEdgeStyle;rounded=0;orthogonalLoop=1;jettySize=auto;html=1;" edge="1" parent="1" source="t1A3uLXFTPM-mlNLIN6W-22" target="t1A3uLXFTPM-mlNLIN6W-20">
          <mxGeometry relative="1" as="geometry" />
        </mxCell>
        <mxCell id="t1A3uLXFTPM-mlNLIN6W-22" value="" style="shape=cube;whiteSpace=wrap;html=1;boundedLbl=1;backgroundOutline=1;darkOpacity=0.05;darkOpacity2=0.1;size=8;rotation=90;fillColor=#dae8fc;strokeColor=#6c8ebf;direction=west;flipV=0;flipH=1;" vertex="1" parent="1">
          <mxGeometry x="-1220" y="380.88" width="108.25" height="75.75" as="geometry" />
        </mxCell>
        <mxCell id="t1A3uLXFTPM-mlNLIN6W-25" value="" style="shape=cube;whiteSpace=wrap;html=1;boundedLbl=1;backgroundOutline=1;darkOpacity=0.05;darkOpacity2=0.1;size=8;rotation=90;fillColor=#dae8fc;strokeColor=#6c8ebf;direction=west;flipV=0;flipH=1;" vertex="1" parent="1">
          <mxGeometry x="-1111.75" y="391.31" width="70" height="54.88" as="geometry" />
        </mxCell>
        <mxCell id="t1A3uLXFTPM-mlNLIN6W-34" style="edgeStyle=orthogonalEdgeStyle;rounded=0;orthogonalLoop=1;jettySize=auto;html=1;" edge="1" parent="1" source="t1A3uLXFTPM-mlNLIN6W-26" target="t1A3uLXFTPM-mlNLIN6W-25">
          <mxGeometry relative="1" as="geometry" />
        </mxCell>
        <mxCell id="t1A3uLXFTPM-mlNLIN6W-26" value="" style="shape=cube;whiteSpace=wrap;html=1;boundedLbl=1;backgroundOutline=1;darkOpacity=0.05;darkOpacity2=0.1;size=8;rotation=90;fillColor=#dae8fc;strokeColor=#6c8ebf;direction=west;flipV=0;flipH=1;" vertex="1" parent="1">
          <mxGeometry x="-1025.22" y="396.53" width="50" height="44.44" as="geometry" />
        </mxCell>
        <mxCell id="t1A3uLXFTPM-mlNLIN6W-27" value="" style="shape=cube;whiteSpace=wrap;html=1;boundedLbl=1;backgroundOutline=1;darkOpacity=0.05;darkOpacity2=0.1;size=8;rotation=90;fillColor=#dae8fc;strokeColor=#6c8ebf;direction=west;flipV=0;flipH=1;" vertex="1" parent="1">
          <mxGeometry x="-950" y="406.53" width="30" height="34.44" as="geometry" />
        </mxCell>
        <mxCell id="t1A3uLXFTPM-mlNLIN6W-29" value="" style="shape=cube;whiteSpace=wrap;html=1;boundedLbl=1;backgroundOutline=1;darkOpacity=0.05;darkOpacity2=0.1;size=8;rotation=90;fillColor=#e1d5e7;strokeColor=#9673a6;direction=west;flipV=0;flipH=1;" vertex="1" parent="1">
          <mxGeometry x="-905" y="315" width="30" height="24.44" as="geometry" />
        </mxCell>
        <mxCell id="t1A3uLXFTPM-mlNLIN6W-30" style="edgeStyle=orthogonalEdgeStyle;rounded=0;orthogonalLoop=1;jettySize=auto;html=1;entryX=0;entryY=0;entryDx=0;entryDy=8.22;entryPerimeter=0;" edge="1" parent="1" source="t1A3uLXFTPM-mlNLIN6W-17" target="t1A3uLXFTPM-mlNLIN6W-29">
          <mxGeometry relative="1" as="geometry" />
        </mxCell>
        <mxCell id="t1A3uLXFTPM-mlNLIN6W-31" style="edgeStyle=orthogonalEdgeStyle;rounded=0;orthogonalLoop=1;jettySize=auto;html=1;exitX=0;exitY=0;exitDx=30;exitDy=16.22;exitPerimeter=0;entryX=0;entryY=0;entryDx=19;entryDy=34.44;entryPerimeter=0;" edge="1" parent="1" source="t1A3uLXFTPM-mlNLIN6W-29" target="t1A3uLXFTPM-mlNLIN6W-27">
          <mxGeometry relative="1" as="geometry" />
        </mxCell>
        <mxCell id="t1A3uLXFTPM-mlNLIN6W-33" style="edgeStyle=orthogonalEdgeStyle;rounded=0;orthogonalLoop=1;jettySize=auto;html=1;exitX=0;exitY=0;exitDx=11;exitDy=0;exitPerimeter=0;entryX=0.536;entryY=1.024;entryDx=0;entryDy=0;entryPerimeter=0;" edge="1" parent="1" source="t1A3uLXFTPM-mlNLIN6W-27" target="t1A3uLXFTPM-mlNLIN6W-26">
          <mxGeometry relative="1" as="geometry" />
        </mxCell>
        <mxCell id="t1A3uLXFTPM-mlNLIN6W-35" style="edgeStyle=orthogonalEdgeStyle;rounded=0;orthogonalLoop=1;jettySize=auto;html=1;entryX=0.5;entryY=0.974;entryDx=0;entryDy=0;entryPerimeter=0;" edge="1" parent="1" source="t1A3uLXFTPM-mlNLIN6W-25" target="t1A3uLXFTPM-mlNLIN6W-22">
          <mxGeometry relative="1" as="geometry" />
        </mxCell>
      </root>
    </mxGraphModel>
  </diagram>
</mxfile>
